<mxfile host="app.diagrams.net" modified="2022-09-23T03:37:35.568Z" agent="5.0 (Windows NT 10.0; Win64; x64) AppleWebKit/537.36 (KHTML, like Gecko) Chrome/105.0.0.0 Safari/537.36 Edg/105.0.1343.42" etag="3XI9XYZaLzBGhrWw8cHo" version="20.3.6" type="github">
  <diagram id="v9VLwlNByZTHMEbdvKlY" name="Page-1">
    <mxGraphModel dx="1375" dy="762" grid="1" gridSize="10" guides="1" tooltips="1" connect="1" arrows="1" fold="1" page="1" pageScale="1" pageWidth="1000" pageHeight="1200" math="0" shadow="0">
      <root>
        <mxCell id="0" />
        <mxCell id="1" parent="0" />
        <mxCell id="Y_LobGCqm3iwVCtXbVBd-1" value="" style="strokeWidth=1;shadow=0;dashed=0;align=center;html=1;shape=mxgraph.mockup.containers.browserWindow;rSize=0;strokeColor=#666666;strokeColor2=#008cff;strokeColor3=#c4c4c4;mainText=,;recursiveResize=0;" parent="1" vertex="1">
          <mxGeometry x="60" y="50" width="880" height="1030" as="geometry" />
        </mxCell>
        <mxCell id="Y_LobGCqm3iwVCtXbVBd-2" value="projectSol.com" style="strokeWidth=1;shadow=0;dashed=0;align=center;html=1;shape=mxgraph.mockup.containers.anchor;fontSize=17;fontColor=#666666;align=left;" parent="Y_LobGCqm3iwVCtXbVBd-1" vertex="1">
          <mxGeometry x="60" y="12" width="110" height="26" as="geometry" />
        </mxCell>
        <mxCell id="Y_LobGCqm3iwVCtXbVBd-3" value="https://www.projectSol/index.com" style="strokeWidth=1;shadow=0;dashed=0;align=center;html=1;shape=mxgraph.mockup.containers.anchor;rSize=0;fontSize=17;fontColor=#666666;align=left;" parent="Y_LobGCqm3iwVCtXbVBd-1" vertex="1">
          <mxGeometry x="130" y="60" width="250" height="26" as="geometry" />
        </mxCell>
        <mxCell id="Y_LobGCqm3iwVCtXbVBd-8" value="" style="verticalLabelPosition=bottom;shadow=0;dashed=0;align=center;html=1;verticalAlign=top;strokeWidth=1;shape=mxgraph.mockup.graphics.simpleIcon;strokeColor=#999999;fontSize=15;fillColor=default;" parent="Y_LobGCqm3iwVCtXbVBd-1" vertex="1">
          <mxGeometry x="50" y="220" width="770" height="190" as="geometry" />
        </mxCell>
        <mxCell id="Y_LobGCqm3iwVCtXbVBd-9" value="Place Image Here" style="text;html=1;strokeColor=none;fillColor=default;align=center;verticalAlign=middle;whiteSpace=wrap;rounded=0;fontSize=15;" parent="Y_LobGCqm3iwVCtXbVBd-1" vertex="1">
          <mxGeometry x="405" y="300" width="60" height="30" as="geometry" />
        </mxCell>
        <mxCell id="Y_LobGCqm3iwVCtXbVBd-15" value="Guide to the Sol System!" style="text;strokeColor=none;fillColor=none;html=1;fontSize=24;fontStyle=1;verticalAlign=middle;align=center;" parent="Y_LobGCqm3iwVCtXbVBd-1" vertex="1">
          <mxGeometry x="370" y="130" width="100" height="40" as="geometry" />
        </mxCell>
        <mxCell id="Y_LobGCqm3iwVCtXbVBd-16" value="&lt;font style=&quot;font-size: 17px;&quot;&gt;Mercury&lt;/font&gt;" style="text;html=1;strokeColor=none;fillColor=none;align=center;verticalAlign=middle;whiteSpace=wrap;rounded=0;" parent="Y_LobGCqm3iwVCtXbVBd-1" vertex="1">
          <mxGeometry x="390" y="180" width="60" height="30" as="geometry" />
        </mxCell>
        <mxCell id="Y_LobGCqm3iwVCtXbVBd-17" value="" style="verticalLabelPosition=bottom;shadow=0;dashed=0;align=center;html=1;verticalAlign=top;strokeWidth=1;shape=mxgraph.mockup.graphics.simpleIcon;strokeColor=#999999;fontSize=15;fillColor=default;" parent="Y_LobGCqm3iwVCtXbVBd-1" vertex="1">
          <mxGeometry x="50" y="490" width="770" height="190" as="geometry" />
        </mxCell>
        <mxCell id="Y_LobGCqm3iwVCtXbVBd-18" value="" style="verticalLabelPosition=bottom;shadow=0;dashed=0;align=center;html=1;verticalAlign=top;strokeWidth=1;shape=mxgraph.mockup.graphics.simpleIcon;strokeColor=#999999;fontSize=15;fillColor=default;" parent="Y_LobGCqm3iwVCtXbVBd-1" vertex="1">
          <mxGeometry x="50" y="770" width="770" height="190" as="geometry" />
        </mxCell>
        <mxCell id="Y_LobGCqm3iwVCtXbVBd-19" value="Place Image Here" style="text;html=1;strokeColor=none;fillColor=default;align=center;verticalAlign=middle;whiteSpace=wrap;rounded=0;fontSize=15;" parent="Y_LobGCqm3iwVCtXbVBd-1" vertex="1">
          <mxGeometry x="400" y="570" width="60" height="30" as="geometry" />
        </mxCell>
        <mxCell id="Y_LobGCqm3iwVCtXbVBd-20" value="Place Image Here" style="text;html=1;strokeColor=none;fillColor=default;align=center;verticalAlign=middle;whiteSpace=wrap;rounded=0;fontSize=15;" parent="Y_LobGCqm3iwVCtXbVBd-1" vertex="1">
          <mxGeometry x="405" y="850" width="60" height="30" as="geometry" />
        </mxCell>
        <mxCell id="Y_LobGCqm3iwVCtXbVBd-21" value="Venus" style="text;html=1;strokeColor=none;fillColor=none;align=center;verticalAlign=middle;whiteSpace=wrap;rounded=0;fontSize=17;" parent="Y_LobGCqm3iwVCtXbVBd-1" vertex="1">
          <mxGeometry x="400" y="440" width="60" height="30" as="geometry" />
        </mxCell>
        <mxCell id="Y_LobGCqm3iwVCtXbVBd-22" value="Earth" style="text;html=1;strokeColor=none;fillColor=none;align=center;verticalAlign=middle;whiteSpace=wrap;rounded=0;fontSize=17;" parent="Y_LobGCqm3iwVCtXbVBd-1" vertex="1">
          <mxGeometry x="400" y="720" width="60" height="30" as="geometry" />
        </mxCell>
      </root>
    </mxGraphModel>
  </diagram>
</mxfile>
